<?xml version="1.0" encoding="utf-8"?>
<!-- Svg Vector Icons : http://www.onlinewebfonts.com/icon -->
<!DOCTYPE svg PUBLIC "-//W3C//DTD SVG 1.1//EN" "http://www.w3.org/Graphics/SVG/1.1/DTD/svg11.dtd">
<svg version="1.1" xmlns="http://www.w3.org/2000/svg" xmlns:xlink="http://www.w3.org/1999/xlink" x="0px" y="0px" viewBox="0 0 1000 1000" enable-background="new 0 0 1000 1000" xml:space="preserve">
<metadata> Svg Vector Icons : http://www.onlinewebfonts.com/icon </metadata>
<g><g transform="translate(0.000000,511.000000) scale(0.100000,-0.100000)"><path d="M750.1,3086c-259.6-63.4-486.5-245.3-594.9-476.3L100,2491.2V109.7v-2381.5l55.2-118.6c67.5-145.1,226.9-316.9,363.9-390.4c218.7-118.6,12.3-114.5,4480.9-114.5c2908.9,0,4133.4,6.1,4211.1,22.5c249.4,51.1,500.8,235.1,605.1,439.5c85.9,169.7,87.9,218.7,81.8,2624.8l-6.1,2299.7l-55.2,118.6c-112.4,241.2-353.6,425.2-625.5,482.4C9045.5,3126.9,895.2,3120.8,750.1,3086z M8941.2,2534.1c0-22.5-3675.5-3219.6-3745-3258.5c-114.5-61.3-286.2-61.3-400.6,2c-71.5,36.8-3745,3234-3745,3256.4c0,4.1,1774.4,8.2,3945.3,8.2S8941.2,2538.2,8941.2,2534.1z M1741.5,1031.6c519.2-455.9,944.4-832,944.4-838.1c0-6.1-455.9-468.1-1011.9-1024.2L662.2-1842.6V66.7V1974l67.5-57.2C766.4,1884,1220.2,1485.4,1741.5,1031.6z M9329.6,54.5v-1897L8317.7-830.7c-556,556-1009.8,1020.1-1005.8,1028.3c6.1,22.5,1982.9,1751.9,2003.3,1751.9C9323.5,1949.4,9329.6,1097,9329.6,54.5z M3779.6-753c347.5-306.6,590.8-502.9,680.7-551.9c306.6-169.7,676.7-181.9,1003.7-34.7c153.3,69.5,173.8,85.8,799.3,631.7c263.7,231,492.6,429.3,509,437.5c20.4,12.3,306.6-261.7,1046.6-1001.7C8381.1-1832.4,8839-2298.4,8839-2306.6c0-10.2-1729.4-16.4-3843.1-16.4c-2113.7,0-3843.1,6.1-3843.1,14.3c0,32.7,2036,2050.3,2058.5,2042.2C3225.6-272.6,3481.1-491.3,3779.6-753z"/></g></g>
</svg>